<svg width="643" height="573" viewBox="0 0 643 573" fill="none" xmlns="http://www.w3.org/2000/svg">
<g clip-path="url(#clip0_35_67)">
<rect width="643" height="573" fill="white"/>
<path d="M435.641 353.793L449.522 369.263L462.742 379.973L474.375 389.097L485.347 397.427L495.791 405.096L505.97 412.236L516.546 419.376L527.122 426.252L537.169 432.599L546.687 438.284L555.544 443.309L563.74 447.672L571.408 451.507L578.546 454.945L585.024 457.721L591.105 460.101L596.789 462.085L601.945 463.671L606.572 464.861L610.802 465.787L614.636 466.316L617.941 466.58H620.849L623.361 466.316L625.608 465.919L627.591 465.39L629.31 464.597L630.764 463.671L632.086 462.614L633.144 461.556L634.069 460.233L634.73 458.779L635.259 457.192L635.655 455.473L635.788 453.49V451.374L635.523 448.862L634.994 446.218L634.201 443.309L633.144 440.135L631.69 436.433L629.971 432.466L627.724 427.971L625.08 423.211L621.907 417.789L618.205 412.104L614.107 406.286L609.348 399.807L604.06 393.063L598.376 386.188L591.898 378.651L585.024 370.982L577.753 363.181L569.557 354.718L560.964 346.256L552.107 337.661L542.324 328.67L532.277 319.679L521.437 310.291L510.465 301.035L500.418 292.837L489.71 284.375L479.002 276.177L468.294 268.243L457.586 260.707L447.01 253.434L436.567 246.559L426.388 240.08L416.34 233.997L406.955 228.576L397.833 223.552L388.976 218.924L380.78 214.825L372.848 211.122L365.577 207.949L358.57 205.172L351.3 202.528L344.293 200.28L337.551 198.297L331.073 196.578L324.86 195.123L318.911 194.065L313.227 193.272L307.675 192.743L302.387 192.479L297.363 192.347L292.604 192.479L287.977 192.875L283.615 193.404L279.252 194.198L275.154 195.256L271.188 196.446L267.487 197.768L263.785 199.354L260.348 201.073L256.911 203.057L253.738 205.172L250.698 207.42L247.789 209.8L245.013 212.445L242.369 215.221L239.857 218.263L237.478 221.436L235.231 224.742L233.115 228.312L231.132 232.014L229.282 235.981L227.431 240.344L225.712 244.972L224.126 250.129L222.54 256.079L220.557 264.277L217.516 276.838L215.93 282.524L214.343 287.284L212.757 291.515L210.906 295.482L208.923 299.316L206.808 303.151L204.429 306.853L201.785 310.688L198.876 314.522L195.439 318.489L191.473 322.72L186.979 327.348L181.294 332.769L174.949 338.587L167.942 344.801L159.482 351.809L148.245 360.933L120.351 383.411L110.833 391.477L102.505 398.749L94.8373 405.757L87.8309 412.368L81.4854 418.715L75.8009 424.797L70.513 430.615L65.7539 436.169L61.5237 441.458L57.6899 446.747L54.385 451.639L51.3445 456.399L48.7005 460.895L46.4532 465.258L44.4702 469.489L42.8839 473.456L41.4297 477.423L40.3721 481.125L39.5789 484.695L39.0502 488.265L38.6535 491.571L38.5213 494.876L38.6535 497.917L38.918 500.959L39.4467 504L40.1077 506.644L41.0331 509.289L42.0907 511.933L43.4127 514.446L44.8668 516.958L46.5854 519.338L48.5683 521.586L50.6835 523.834L53.063 525.949L55.707 527.932L58.4831 529.784L61.5237 531.635L65.093 533.486L68.9267 535.205L73.0248 536.792L77.3873 538.246L82.2786 539.568L87.5665 540.758L93.1187 541.816L99.332 542.742L105.81 543.403L112.552 543.932L120.087 544.328L127.887 544.461L136.479 544.328L145.337 544.064L153.929 543.535L162.654 542.742L172.173 541.684L181.823 540.362L191.606 538.775L202.049 536.792L212.493 534.544L223.597 532.031L234.702 529.255L245.806 526.214L256.779 522.908L268.28 519.338L279.517 515.503L290.621 511.537L301.461 507.438L312.037 503.206L322.216 498.843L331.999 494.347L341.914 489.587L351.961 484.563L361.479 479.538L370.6 474.514L379.193 469.489L387.389 464.465L395.189 459.44L402.856 454.151L409.995 448.994L416.605 443.838L422.818 438.813L428.503 433.789L433.526 429.161L438.285 424.533L442.78 419.773L446.878 415.145L450.58 410.517L454.017 406.021L457.057 401.658L459.833 397.295L462.213 393.063L464.328 388.832L466.179 384.733L467.897 380.502L469.352 376.403L470.541 372.172L471.467 368.073L472.26 363.842L472.789 359.743L473.185 355.512L473.317 351.281L473.185 346.917L472.921 342.554L472.392 338.058L471.599 333.298L470.674 328.406L469.484 323.381L467.897 318.092L466.047 312.406L463.799 306.456L461.287 300.242L458.379 293.631L454.81 285.962L450.183 276.706L443.044 262.954L433.526 244.443L427.709 232.807L422.422 221.7L417.795 211.387L413.3 200.941L408.673 189.438L403.253 175.686L391.884 145.671L380.647 116.45L375.756 104.285L371.526 94.5004L367.692 86.038L363.99 78.369L360.289 71.2289L356.72 64.7499L353.15 58.7998L349.449 53.1141L345.879 47.9574L342.31 43.1973L338.741 38.8339L335.172 34.7349L331.602 31.0326L328.033 27.727L324.331 24.5536L320.762 21.6447L317.193 19.1324L313.491 16.7524L309.922 14.769L306.22 12.9179L302.651 11.3311L298.95 10.0089L295.116 8.81889L291.547 8.02553L287.845 7.36441L284.011 6.96775L280.045 6.70329H276.079L271.981 6.96775L268.015 7.49664L264.05 8.15777L259.951 9.08335L255.853 10.2734L251.623 11.7278L247.393 13.4467L243.162 15.4301L238.8 17.6779L234.437 20.1902L230.075 23.0992L225.712 26.2725L221.35 29.7104L216.987 33.4127L212.625 37.3794L208.262 41.7428L204.032 46.3707L199.802 51.263L195.571 56.4197L191.077 62.2376L186.582 68.4522L182.22 74.9312L177.857 81.6746L173.627 88.6825L169.132 96.4838L164.77 104.549L160.407 112.88L156.177 121.474L152.475 129.672L148.906 138.002L145.469 146.465L142.032 155.72L138.727 165.108L135.686 174.496L132.778 184.016L130.134 193.537L127.622 203.057L125.375 212.577L123.392 222.097L121.673 231.485L120.087 240.741L118.765 249.996L117.707 259.12L116.914 268.111L116.253 276.838L115.857 284.771L115.724 292.573V300.242L115.989 307.646L116.518 314.919L117.179 321.927L117.972 328.802L119.029 335.414L120.219 341.76L121.541 347.975M121.541 347.975L122.995 353.925L124.714 359.611L126.565 365.164L128.548 370.453L130.663 375.478L132.91 380.37L135.29 384.998L137.801 389.361L140.445 393.46L143.221 397.427L146.13 401.129L149.038 404.567L152.079 407.873L155.251 410.914L158.556 413.823L162.126 416.732L165.827 419.376L169.529 421.756L173.362 424.004L177.593 426.12L181.823 428.103L186.185 429.822L190.812 431.409L195.571 432.731L200.331 433.921L205.354 434.846L210.51 435.64L215.93 436.169L221.35 436.565L227.034 436.698L232.983 436.565L238.932 436.301L245.145 435.772L251.491 434.979L258.101 433.921L264.843 432.599L271.981 431.012L279.252 429.161L286.787 426.913L294.587 424.401L302.651 421.492L311.112 418.186L320.101 414.484L329.619 410.253L340.195 405.36L354.869 398.352L375.095 388.7L384.084 384.733L391.223 381.824L397.436 379.444L403.121 377.593L408.409 376.006L413.432 374.816L418.323 373.891L423.083 373.23L427.709 372.833L432.204 372.569H436.699L441.194 372.833L445.82 373.362L450.58 374.023L455.471 374.949L460.494 376.139L465.782 377.725L471.599 379.709L478.077 382.089L484.819 384.865L492.089 388.039L500.286 391.873L510.333 396.898L543.778 413.823L551.842 417.525L558.849 420.434L564.93 422.814L570.218 424.533L574.845 425.855L578.811 426.781L582.248 427.31L585.156 427.574H587.668L589.783 427.31L591.634 426.913L593.088 426.384L594.278 425.723L595.335 424.93L596.261 423.872L596.922 422.814L597.45 421.624L597.847 420.169L598.111 418.451V416.599L597.979 414.616L597.583 412.236L596.789 409.592L595.732 406.683L594.41 403.377L592.559 399.675L590.312 395.576L587.536 390.948L584.231 385.791L580.265 380.105L575.638 373.891L570.35 367.147L564.137 359.611L556.866 351.148L548.273 341.496L538.887 331.315L530.162 322.191L520.247 312.142L509.143 301.167L496.849 289.399L483.629 276.97L469.484 264.012L454.942 251.054L440.797 238.757L427.842 227.651L410.259 212.974L390.826 197.107L370.072 180.314L350.639 164.976L336.229 153.869L325.521 145.804L316.796 139.589L309.658 134.697L303.709 130.862L298.553 127.821L293.926 125.309L289.828 123.325L285.994 121.739L282.293 120.549L278.856 119.623L275.683 118.962L272.642 118.565L269.734 118.433L266.826 118.565L264.05 118.83L261.406 119.359L258.762 120.152L256.25 121.078L253.606 122.268L251.094 123.722L248.45 125.441L245.806 127.424L243.162 129.804L240.651 132.317L238.139 135.226L235.627 138.399L232.983 141.969L230.471 145.936L227.828 150.299L225.184 155.059L222.54 160.348L219.896 166.298L217.252 172.777L214.476 180.05L211.435 188.512L207.469 200.412L199.934 223.155L196.629 232.411L193.589 240.344L190.548 247.484L187.507 252.244L184.335 258.723L181.03 265.07L177.46 271.285L173.627 277.631L169.396 284.11L164.902 290.589L160.01 297.201L154.723 304.076L148.774 311.481L142.032 319.414L134.232 328.406L124.449 339.248L109.908 354.983L91.5324 374.949L80.0312 387.774L71.174 397.956L63.771 406.815L57.4255 414.748L51.741 422.021L46.7176 429.029L42.3551 435.243L38.3892 441.325L34.952 447.011L31.9115 452.432L29.2676 457.589L26.888 462.878L24.7729 467.902L23.0543 472.663L21.6001 477.158L20.5426 481.257L19.6172 485.356L19.0884 489.191L18.6918 493.025L18.5596 496.728L18.6918 500.165L18.9562 503.603L19.485 506.909L20.146 509.95L21.0714 512.859L22.1289 515.768L23.4509 518.677L24.9051 521.453L26.6236 524.23L28.4744 526.875L30.5895 529.387L32.9691 531.899L35.613 534.279L38.3892 536.659L41.4297 538.907L44.7346 541.023L48.304 543.006L52.1377 544.857L56.1036 546.708L60.3339 548.427L64.8286 550.014L69.9843 551.601L75.5365 552.923L81.3532 554.113L87.3021 555.171L94.0441 556.096L101.051 556.757L108.321 557.286L115.857 557.551L123.524 557.683L131.985 557.551L140.71 557.154L149.567 556.493L158.556 555.567L167.678 554.51L177.593 553.055L187.64 551.336L197.687 549.353L207.866 547.237L218.706 544.725L229.546 541.948L240.254 538.907L251.623 535.469L262.86 531.767L273.171 528.197L283.35 524.495L293.926 520.396L304.237 516.164L314.152 511.801L323.803 507.305L333.189 502.678L342.178 498.05L350.771 493.29L359.099 488.53L367.031 483.637L374.566 478.745L381.705 473.853L388.447 468.96L394.396 464.332L399.948 459.705L405.236 455.077L410.127 450.449L414.622 445.821L418.852 441.325L422.818 436.83L426.388 432.334L429.692 427.838L432.733 423.343L435.509 418.979L438.021 414.616L440.268 410.253L442.251 406.021L444.102 401.526L445.688 397.03L447.01 392.667L448.068 388.303L448.993 383.808L449.654 379.312L450.183 374.816L450.447 370.189V365.428L450.315 360.801L449.919 356.041L449.258 351.148L448.464 346.124L447.407 340.967L446.085 335.678L444.499 330.125L442.648 324.307L440.4 318.224L437.889 311.745L434.98 305.002L431.675 297.994L427.974 290.589L423.215 281.73L417.398 271.152L396.775 234.526L391.884 225.27L387.786 216.94L384.217 209.007L380.912 201.338L377.739 193.537L374.698 185.206L371.526 175.951L367.824 164.712L363.33 150.299L351.3 110.764L348.259 101.905L345.351 94.1037L342.575 87.0958L339.666 80.6168L336.89 74.6667L333.982 69.1133L331.073 63.9565L328.165 59.3287L325.257 55.0975L322.348 51.1307L319.308 47.4285L316.267 44.1229L313.227 41.0817L310.186 38.305L307.146 35.9249L304.105 33.8093L300.932 31.826L297.76 30.2393L294.455 28.7848L291.282 27.5948L287.977 26.6692L284.54 25.8758L280.971 25.347L277.534 25.0825L273.964 24.9503L270.527 25.0825L267.09 25.4792L263.521 26.0081L260.216 26.1403L256.514 27.1981L252.813 28.5203L249.111 30.107L245.278 31.9582L241.444 34.0738L237.61 36.4538L233.776 39.0983L229.943 42.0073L226.109 45.1806L222.275 48.7507L218.177 52.8497L214.079 57.2131L209.981 61.8409L205.883 66.8655L201.52 72.5511L197.29 78.5012L193.06 84.7158L188.565 91.7237L184.203 98.996L179.972 106.533L176.271 113.409L172.437 120.945L168.735 128.747L165.298 136.68L161.729 145.275L158.424 154.001L155.251 162.86L152.211 171.852L149.302 181.372L146.526 190.892L144.015 200.412L141.767 209.932L139.784 219.453L137.934 228.841L136.347 238.096L135.025 247.22L133.968 256.211L133.174 265.07L132.646 273.665L132.249 281.995L131.985 290.589L132.117 298.92L132.381 306.985L132.91 314.786L133.571 322.323L134.496 329.463L135.554 336.339L136.744 342.95L138.066 349.297L139.652 355.247L141.371 360.933L143.221 366.354L145.204 371.511L147.32 376.403L149.435 381.031L151.682 385.394L154.062 389.493L156.573 393.328L159.217 397.03L161.993 400.468L164.902 403.641L167.81 406.55L170.851 409.327L174.156 411.972L177.46 414.352L180.765 416.467L184.335 418.451L188.036 420.302L191.87 422.021L195.968 423.475L200.198 424.797L204.693 425.987L209.32 426.913L214.079 427.706L219.103 428.235L224.39 428.5L229.81 428.632L235.759 428.5L241.973 428.103L248.715 427.442L256.118 426.516L264.314 425.326L273.436 423.74L284.011 421.624L300.271 418.054L315.474 414.88L325.257 413.029L333.585 411.707L341.253 410.649L348.523 409.988L355.53 409.592L362.272 409.327H369.146L376.153 409.592L383.159 410.12L390.298 410.782L397.436 411.707L404.972 412.897L412.771 414.352L420.967 416.203L429.692 418.318L438.946 420.831L449.125 423.872L461.023 427.706L475.565 432.599L489.71 437.623L506.367 443.705L549.86 459.969L561.096 463.804L570.482 466.845L578.679 469.225L586.082 471.208L592.824 472.795L598.905 473.985L604.325 474.778L609.084 475.307L613.314 475.572H617.148L620.585 475.307L623.626 474.91L626.269 474.249L628.517 473.456L630.5 472.53L632.218 471.473L633.672 470.283L634.994 468.96L636.052 467.638L636.977 466.184L637.638 464.597L638.167 462.878L638.564 460.895L638.696 458.779V456.531L638.432 453.887L637.903 450.978L637.11 447.937L636.052 444.367L634.598 440.532L632.879 436.565L630.368 432.07L627.856 427.31L624.947 422.285L621.378 416.732L617.412 410.914L613.05 404.831L608.026 398.22L602.474 391.345L596.525 384.337L589.783 376.668L582.644 368.866L575.109 360.933L566.649 352.47L557.791 343.876L548.141 334.752L537.565 325.1L526.725 315.58L516.81 307.117L506.763 298.787L496.584 290.722L485.744 282.391L474.904 274.326L464.064 266.657L453.356 259.252L443.309 252.641L433.394 246.294L423.611 240.344L413.961 234.791L404.972 229.898L396.247 225.403L388.183 221.436L380.383 217.866L372.715 214.56L364.784 211.387L357.116 208.61L350.11 206.362L343.368 204.379L336.758 202.66L330.412 201.206L324.331 200.016L318.383 199.354L312.698 198.693L307.278 198.297L301.99 198.164L296.967 198.297L292.208 198.561L287.581 199.09L282.954 199.883L278.459 200.809L274.229 201.999L270.263 203.321L266.429 204.776L262.595 206.495L259.026 208.346L255.721 210.329L252.416 212.577L249.376 214.957L246.335 217.601L243.559 220.246L240.783 223.155L238.139 226.328L235.759 229.502L233.512 232.807L231.397 236.377L229.414 240.08L227.695 243.914L226.109 248.013L224.655 252.244L223.333 256.74L222.143 261.5L221.085 266.525L220.16 272.078L219.367 278.425L218.574 286.755L217.384 298.92L216.591 304.076L215.798 308.308L214.872 312.01L213.815 315.448L212.493 318.753L211.038 321.927L209.32 325.1L207.469 328.141L205.222 331.315L202.71 334.62L199.67 338.19L196.232 341.893L192.267 345.727L187.772 349.826L182.616 354.322L176.271 359.478L168.207 365.825L153.929 376.535L139.52 387.51L128.68 396.105L119.426 403.641L111.494 410.385L104.488 416.599L98.2744 422.417L92.7221 427.971L87.8309 433.127L83.4683 438.02L79.6346 442.648L76.0653 447.275L73.0248 451.639L70.3808 455.87L68.0013 459.969L65.8861 463.936L64.1676 467.77L62.7134 471.34L61.6558 474.778L60.8627 478.084L60.2017 481.257L59.8051 484.298L59.6729 487.34L59.8051 490.116L60.0695 492.893L60.5983 495.537L61.2593 498.05L62.1846 500.43L63.2422 502.81L64.5642 505.058L66.1506 507.305L67.8691 509.421L69.8521 511.537L72.0994 513.52L74.479 515.503L77.1229 517.355L80.2956 519.206L83.7328 520.925L87.4343 522.511L91.4002 523.966L95.6305 525.288L100.125 526.478L104.884 527.536L110.304 528.461L115.989 529.255L122.334 529.916L128.944 530.312L135.818 530.577H143.354L151.153 530.312L159.085 529.916L167.678 529.255L176.535 528.329L185.524 527.139L195.175 525.552L204.957 523.701L215.269 521.586L225.58 519.206L236.42 516.429L247.261 513.52L258.629 510.214L270.395 506.512L282.425 502.545L294.19 498.314L306.22 493.819L318.25 489.058L330.412 484.034L342.575 478.745L355.001 473.059L367.295 467.241L379.325 461.291L390.959 455.209L402.195 449.127L412.903 443.044L422.818 437.226L432.204 431.409L441.326 425.591L449.654 419.905L457.189 414.484L464.064 409.327L470.277 404.435L475.829 399.675L480.72 395.311L485.083 391.08L488.785 387.113L492.089 383.279L494.998 379.709L497.377 376.271L499.36 372.965L501.079 369.792L502.533 366.751L503.723 363.71L504.648 360.801L505.309 357.759L505.838 354.718L506.102 351.677L506.234 348.504L506.102 345.33L505.706 342.025L505.177 338.587L504.384 335.017L503.326 331.182L502.004 327.216L500.286 322.984L498.17 318.357L495.659 313.332L492.618 307.779L488.917 301.432L484.422 294.292L478.341 285.036L464.725 264.806L456.396 252.244L449.786 241.931L443.838 232.146L438.153 222.229L432.865 212.709L427.709 203.057L422.554 192.743L417.134 181.504L411.053 168.414L403.385 151.489L385.803 112.351L379.722 99.3927L374.698 89.2114L370.204 80.6168L365.973 72.9478L362.008 66.0721L358.042 59.7253L354.076 53.9075L350.11 48.354L346.144 43.3295L342.442 38.8339L338.741 34.7349L335.039 30.9004L331.338 27.4626L327.504 24.1569L323.803 21.248L320.101 18.6035L316.267 16.2235L312.566 14.1079L308.732 12.2567L305.031 10.67L301.329 9.21559L297.495 8.02553L293.794 7.09999L289.96 6.43886L286.126 5.90997L282.161 5.64551H278.459L274.625 5.77774L270.659 6.1744L266.561 6.83552L262.463 7.76111L258.233 8.95112L254.003 10.4056L249.64 12.1245L245.278 14.1079L240.915 16.3557L236.553 18.868L232.058 21.6447L227.563 24.6858L223.068 28.1237L218.574 31.826L214.079 35.7927L209.717 40.0239L205.354 44.5195L200.992 49.4118L196.629 54.5686L192.399 59.9898L188.168 65.6754L183.674 72.0222L179.311 78.7657L174.949 85.7736L170.718 93.0459L166.224 101.112L161.861 109.442L157.631 118.036L153.533 126.763L149.831 135.093L146.394 143.556L143.089 152.15L139.916 160.877L136.744 170.397L133.703 179.917L130.927 189.438L128.415 199.09L126.036 208.742L123.921 218.263L122.07 227.783L120.484 237.171L119.029 246.559L117.84 255.814L117.443 264.144L116.782 273.136L116.385 281.334L116.121 289.267V297.068L116.385 304.605L116.782 312.01L117.443 319.15L118.236 326.158L119.162 332.901L120.351 339.38L121.673 345.727L123.127 351.809L124.846 357.627L126.697 363.313L128.68 368.734L130.795 373.891L133.042 378.783L135.422 383.543L137.934 388.039L140.577 392.27L143.354 396.237L146.262 400.071L149.302 403.641L152.343 406.947L155.516 410.12L158.821 413.029L162.258 415.806L165.959 418.451L169.793 420.963L173.627 423.211L177.593 425.326L181.955 427.31L186.318 429.029L190.68 430.615L195.439 432.07L200.198 433.26L205.354 434.318L210.51 435.111L216.062 435.64L221.614 436.036L227.431 436.169L233.248 436.036L239.329 435.772L245.674 435.243L252.152 434.45L258.629 433.392L265.504 432.07L272.51 430.483L279.649 428.632L287.052 426.384L294.851 423.872L302.783 420.963L311.112 417.657L319.837 414.087L328.958 409.988L338.741 405.36L349.713 399.939L386.2 381.692L393.338 378.519L399.552 376.006L405.236 373.891L410.392 372.172L415.415 370.85L420.174 369.792L424.801 368.999L429.296 368.47L433.791 368.205L438.153 368.073L442.516 368.205L446.878 368.602L451.373 369.263L456 370.189L460.759 371.379L465.782 372.833L471.335 374.684L477.416 376.932L483.761 379.577L490.635 382.618L498.303 386.32L507.424 390.948L521.569 398.352L536.64 406.154L545.761 410.649L553.561 414.219L560.171 416.996L565.988 419.244L571.011 420.963L575.374 422.153L579.075 422.946L582.248 423.475L584.892 423.607H587.139L589.122 423.343L590.841 422.946L592.163 422.285L593.22 421.492L594.146 420.566L594.939 419.508L595.6 418.318L595.996 416.996L596.261 415.409L596.393 413.69L596.261 411.707L595.864 409.592L595.203 407.079L594.278 404.17L593.088 401.129L591.502 397.691L589.386 393.725L586.875 389.361L583.834 384.469L580.133 379.048L575.902 373.23L570.747 366.619L564.666 359.082L557.659 350.752L549.331 341.231L540.209 331.182L531.616 322.059L521.834 312.01L510.994 301.167L498.699 289.135L484.951 276.045L470.145 262.293L455.074 248.542L440.4 235.452L426.388 223.287L404.839 204.776L374.566 179.256L340.988 151.225L327.636 140.25L318.25 132.846L311.112 127.424L305.163 123.193L300.007 119.888L295.38 117.243L291.282 114.995L287.581 113.276L284.011 111.822L280.706 110.764L277.534 109.971L274.493 109.442L271.585 109.177H268.676L265.9 109.31L263.124 109.706L260.48 110.367L257.836 111.161L255.192 112.219L252.548 113.541L249.772 115.127L246.996 116.979L244.352 119.094L241.708 121.474L239.064 124.119L236.42 127.16L233.776 130.465L231.132 134.168L228.489 138.267L225.712 142.762L223.068 147.655L220.424 152.944L217.781 158.762L215.137 165.108L212.36 172.116L209.584 179.917L206.544 188.909L202.71 200.941L194.117 228.444L190.945 237.964L187.904 246.03L184.996 253.434L181.955 260.442L178.915 266.921L175.742 273.4L172.305 279.879L168.603 286.358L164.637 292.705L160.407 299.184L155.78 305.795L150.757 312.671L145.072 320.075L138.595 328.141L131.059 337.132L121.541 347.975ZM121.541 347.975L104.884 366.751L87.4343 386.452L77.7839 397.823L70.2486 406.947L63.9032 415.013L58.4831 422.285L53.5918 429.161L49.3615 435.375L45.5278 441.458L42.2229 447.011L39.3145 452.432L36.8028 457.589L34.5554 462.614L32.7047 467.374L31.1183 471.869L29.9285 476.1L28.871 480.199L28.0778 484.034L27.549 487.868L27.2846 491.439V494.876L27.4168 498.314L27.8134 501.488L28.3422 504.661L29.1354 507.702L30.0607 510.743L31.2505 513.652L32.5725 516.297L34.0267 518.941L35.7452 521.453L37.596 523.966L39.7111 526.346L42.0907 528.594L44.6024 530.841L47.3786 532.957L50.6835 535.205L54.2528 537.32L58.0865 539.304L62.1846 541.155L66.5471 542.874L71.174 544.461L76.0653 545.915L81.221 547.237L87.0377 548.427L93.1187 549.485L99.4642 550.411L106.074 551.072L113.345 551.601L120.88 551.865H128.68L136.612 551.733L144.808 551.336L153.665 550.675L162.787 549.75L172.04 548.559L181.426 547.237L191.473 545.518L201.653 543.535L211.832 541.287L222.672 538.643L233.512 535.866L245.013 532.693L256.382 529.255L266.958 525.817L277.401 522.247L288.242 518.28L298.817 514.181L309.129 509.95L319.704 505.322L329.884 500.562L339.666 495.67L349.052 490.777L358.042 485.885L366.634 480.861L374.831 475.836L382.234 471.076L389.24 466.316L395.85 461.556L402.063 456.796L407.88 452.036L413.3 447.275L418.323 442.648L423.083 438.02L427.445 433.392L431.411 428.764L435.112 424.268L438.55 419.773L441.59 415.277L444.366 410.914L446.878 406.55L449.125 402.319L451.241 397.823L453.091 393.46L454.678 389.097L456 384.865L457.189 380.37L458.115 376.006L458.776 371.511L459.305 367.015L459.569 362.387L459.701 357.759L459.569 353.132L459.172 348.372L458.644 343.611L457.85 338.587L456.793 333.43L455.471 328.009L453.884 322.455L452.034 316.638L449.919 310.555L447.407 304.209L444.631 297.73L441.194 290.193L437.095 281.863L431.808 271.681L414.622 238.625L410.127 229.237L405.897 219.982L401.402 209.404L397.04 198.693L393.338 189.041L389.637 178.86L385.671 167.224L380.119 150.431L372.715 127.821L368.089 114.599L363.858 103.227L360.157 93.7071L356.72 85.5091L353.415 78.2368L350.242 71.6255L347.069 65.5432L344.029 60.122L340.856 54.9652L337.683 50.3374L334.511 45.974L331.206 41.875L327.901 38.1728L324.596 34.7349L321.291 31.5615L317.986 28.7848L314.813 26.2725L311.508 24.0247L308.203 22.0413L304.766 20.1902L301.461 18.7357L298.024 17.4135L294.455 16.3557L291.018 15.5623L287.448 14.9012L283.879 14.5046L280.178 14.2401H276.344L272.51 14.5046L268.809 15.0335L265.107 15.6946L261.273 16.6201L257.307 17.8102L253.342 19.2646L249.243 20.9836L245.145 22.9669L240.915 25.2147L236.685 27.8592L232.454 30.7682L228.092 33.9416L223.729 37.3794L219.367 41.0817L215.004 45.1806L210.774 49.5441L206.544 54.1719L202.314 59.0642L198.215 64.221L194.117 69.6422L190.151 75.3279L185.921 81.6746L181.823 88.2859L177.857 95.1615L173.891 102.302L170.057 109.574L166.356 117.111L162.522 125.441L158.821 133.903L155.384 142.498L151.814 151.886L148.377 161.406L145.204 171.058L142.428 180.182L139.784 189.305L137.405 198.429L135.29 207.552L133.174 217.205L131.324 226.857L129.737 236.377L128.415 245.765L127.358 255.021L126.432 264.144L125.771 273.004L125.375 281.73L125.243 290.193V298.523L125.507 306.06L125.904 313.332L126.565 320.472L127.358 327.348L128.415 333.959L129.605 340.306L130.927 346.388L132.381 352.206L133.968 357.892L135.818 363.313L137.801 368.47L139.916 373.362L142.164 377.99L144.543 382.353L146.923 386.584L149.435 390.551L152.079 394.253L154.855 397.823L157.631 401.129L160.804 404.435L163.976 407.476L167.281 410.253L170.718 412.897L174.42 415.409L178.121 417.657L181.955 419.773L186.053 421.756L190.151 423.475L194.382 424.93L198.876 426.252L203.635 427.442L208.395 428.367L213.418 429.161L218.706 429.69L224.258 430.086L230.075 430.218L236.024 430.086L242.237 429.822L248.582 429.293L255.06 428.5L262.067 427.442L269.47 425.987L277.269 424.268L285.73 422.153L295.116 419.641L305.956 416.467L320.63 411.839L344.69 404.303L354.472 401.526L362.801 399.41L370.072 397.691L376.814 396.369L383.159 395.443L389.24 394.782L395.189 394.253L401.006 393.989H406.822L412.639 394.253L418.72 394.782L424.801 395.443L431.014 396.369L437.36 397.559L443.97 399.014L450.844 400.865L457.983 402.98L465.65 405.493L474.111 408.534L483.761 412.236L495.659 416.996L519.19 426.781L549.463 439.342L560.832 443.838L569.689 447.143L576.96 449.523L583.305 451.374L588.858 452.829L593.617 453.887L597.847 454.548L601.813 454.945L605.382 455.077L608.423 454.945L611.199 454.68L613.578 454.151L615.561 453.49L617.28 452.697L618.734 451.771L620.056 450.713L621.114 449.523L621.907 448.201L622.568 446.747L623.097 445.16L623.361 443.441L623.493 441.458L623.361 439.342L623.097 436.962L622.568 434.318L621.775 431.276L620.717 427.971L619.263 424.268L617.412 420.302L615.033 415.806L612.124 410.782L608.819 405.36L605.25 400.071L601.02 394.121L596.128 387.51L590.444 380.37L584.363 372.965L577.489 365.032L569.821 356.437L561.757 347.71L552.9 338.587L543.646 329.331L534.128 320.075L524.345 310.82L514.299 301.696L504.119 292.705L493.808 283.978L483.364 275.384L472.921 267.053L462.477 259.12L451.769 251.187L440.797 243.385L430.089 235.981L419.117 228.708L408.541 221.965L398.23 215.75L388.315 209.932L378.797 204.643L370.072 200.016L361.743 195.784L354.076 192.214L346.673 189.041L339.931 186.396L333.453 184.149L327.107 182.165L321.026 180.446L315.21 178.992L309.79 177.934L304.634 177.141L299.743 176.612L295.116 176.347H290.489L286.126 176.48L282.028 176.876L278.195 177.405L274.493 178.199L271.056 179.124L267.619 180.314L264.314 181.636L261.273 183.223L258.365 184.942L255.589 186.793L252.945 188.909L250.301 191.289L247.789 193.933L245.278 196.71L242.898 199.883L239.064 203.321L236.685 207.156L234.437 211.255L232.322 215.618L229.414 221.965L220.953 240.741L218.177 246.294L215.269 251.451L212.228 256.343L208.923 261.368L205.354 266.392L201.52 271.417L197.29 276.574L192.531 281.995L187.111 287.813L180.898 294.159L173.759 301.167L165.166 309.365L151.946 321.398L137.405 334.488L97.0847 370.453L86.9055 379.973L78.0483 388.436L69.9843 396.501L62.8456 403.906L56.2358 411.178L50.1547 418.186L44.6024 424.93L39.5789 431.276L34.952 437.491L30.7217 443.573L26.888 449.391L23.4509 455.077L20.4104 460.498L17.7664 465.655L15.5191 470.547L13.6683 475.175L11.9498 479.803L10.6278 484.166L9.5702 488.265L8.77701 492.364L8.24823 496.463L7.98386 500.165L7.85165 503.868L7.98386 507.173L8.24823 510.479L8.77701 513.784L9.5702 517.09L10.4956 520.396L11.5532 523.305L12.8751 526.214L14.3293 528.99L16.0478 531.767L17.8986 534.412L20.0138 537.056L22.3933 539.568L24.9051 541.948L27.6812 544.196L30.7217 546.444L33.8944 548.559L37.3316 550.543L41.0331 552.394L45.2634 554.245L49.7581 555.964L54.5172 557.551L59.5407 559.005L64.8286 560.327L70.9096 561.518L77.2551 562.575L83.865 563.369L90.7392 564.03L98.5388 564.559L106.603 564.823H114.931L124.053 564.691L133.439 564.294L143.089 563.633L152.211 562.84L161.465 561.782L171.512 560.327L181.691 558.741L191.87 556.89L202.181 554.774L213.154 552.262L224.126 549.485L235.098 546.576L245.939 543.403L256.646 540.097L267.222 536.527L277.666 532.825L287.845 528.99L297.76 525.024L307.41 520.925L316.796 516.693L325.918 512.33L334.643 507.834L342.442 503.603L350.506 498.975L358.174 494.347L365.445 489.587L372.319 484.827L378.929 480.067L385.142 475.307M385.142 475.307L390.959 470.415L396.511 465.522L401.27 461.027L405.765 456.531L409.995 452.036L413.961 447.54L417.53 443.044L420.835 438.549L423.876 434.053L426.652 429.69L429.164 425.326L431.411 420.963L433.394 416.599L435.112 412.236L436.567 408.005L437.889 403.509L439.078 399.014L440.004 394.518L440.665 390.154L441.194 385.527L441.458 380.899L441.59 376.403L441.458 371.643L441.061 367.015L440.533 362.123L439.739 357.098L438.682 352.074L437.492 346.917L436.038 341.628L434.319 336.207L432.336 330.653L429.957 324.836L427.313 318.753L424.272 312.539L420.835 305.927L417.001 298.92L412.507 291.383L407.219 282.92L400.873 273.004L392.016 259.649L377.871 238.493L372.187 229.502L367.692 221.965L363.858 215.221L360.421 208.742L357.381 202.528L354.472 196.181L351.696 189.438L349.184 182.959L346.805 176.215L344.558 169.075L342.31 161.009L339.666 151.093L330.941 117.111L328.297 107.855L325.918 100.318L323.67 93.8393L321.423 88.1536L319.176 82.9969L316.928 78.2368L314.681 74.0056L312.301 70.1711L309.79 66.3366L307.278 62.8987L304.766 59.8576L302.254 57.0808L299.611 54.7008L296.967 52.5852L294.323 50.7341L291.547 49.0151L288.77 47.5607L285.862 46.3707L282.954 45.4451L280.045 44.6517L277.137 44.1229L274.096 43.8584L271.056 43.7262L268.148 43.3295L264.843 43.7262L261.67 44.2551L258.365 45.0484L255.06 46.1062L251.623 47.4285L248.186 49.0151L244.617 50.8663L240.915 53.1141L237.214 55.6264L233.512 58.4031L229.81 61.4443L226.109 64.7499L222.407 68.3199L218.706 72.1544L214.872 76.5179L211.038 81.1457L207.337 86.038L203.635 91.1948L200.066 96.616L196.365 102.698L192.795 109.045L189.358 115.524L185.789 122.664L182.352 130.069L178.915 138.002L175.477 146.597L172.04 155.72L168.603 165.373L165.827 173.967L163.183 182.959L160.671 191.95L158.292 201.338L156.045 211.122L154.062 220.775L152.211 230.692L150.492 240.873L149.038 250.79L147.848 260.839L146.923 270.623L146.13 280.408L145.601 289.928L145.337 299.316L145.204 309.233L145.337 318.885L145.601 328.538L146.13 337.926L146.923 347.181L147.848 356.041L148.906 364.503L150.228 372.701L151.55 380.238L153.004 387.378L154.59 393.989L156.177 399.675L157.895 404.831L159.614 409.459L161.332 413.558L163.183 417.261L165.034 420.698L167.017 423.74L169 426.516L171.115 429.029L173.362 431.409L175.742 433.524L178.121 435.375L180.633 437.094L183.277 438.681L186.053 440.003L189.094 441.193L192.267 442.251L195.704 443.177L199.405 443.838L203.503 444.367L207.866 444.763L212.757 444.895L218.045 444.763L223.729 444.499L230.075 443.97L237.346 443.044L245.674 441.722L255.985 439.871L270.924 436.962L296.438 432.07L307.542 430.218L317.193 428.764L326.182 427.706L334.643 426.913L342.971 426.384L351.035 426.12L359.099 425.987L367.295 426.12L375.624 426.516L384.084 427.177L392.809 427.971L401.667 429.029L411.317 430.483L420.703 432.07L430.486 434.053L440.665 436.301L451.505 438.945L463.535 442.119L477.151 445.953L493.411 450.713L556.734 469.621L568.631 472.795L578.15 475.043L586.346 476.762L593.485 478.084L599.566 479.009L604.986 479.538L609.877 479.803H614.107L617.941 479.538L621.378 479.142L624.419 478.613L627.063 477.952L629.31 477.158L631.425 476.1L633.144 475.043L634.598 473.853L635.92 472.53L637.11 471.076L638.035 469.489L638.828 467.77L639.357 465.919L639.753 463.804L639.886 461.556V459.176L639.621 456.663L639.093 453.755L638.299 450.581L637.242 447.275L635.788 443.441L634.069 439.342L631.954 435.111L629.31 430.218L626.402 425.062L622.832 419.244L618.866 413.162L614.636 407.344L609.745 400.865L604.457 394.121L598.244 386.717L591.634 379.18L584.231 370.982L576.431 362.652L568.235 354.189L559.113 345.198L549.727 336.207L539.945 327.216L529.898 318.357L519.719 309.63L509.936 301.432L500.021 293.498L489.974 285.697L479.927 278.16L469.88 270.888L460.362 264.277L450.844 258.062L441.458 252.112L431.543 246.162L421.893 240.609L412.375 235.32L402.989 230.427L393.867 225.932L385.406 221.965L377.21 218.395L369.146 215.089L361.347 212.18L353.811 209.536L346.54 207.288L339.931 205.437L333.453 203.85L327.24 202.66L321.291 201.734L315.474 201.073L309.922 200.677L304.502 200.544H299.346L294.323 200.809L289.564 201.338L284.937 201.999L280.31 202.925L275.815 204.115L271.585 205.437L267.487 206.891L263.653 208.478L260.084 210.329L256.382 212.445L252.945 214.693L249.772 216.94L246.6 219.453L243.691 222.097L240.783 225.006L238.139 228.047L235.627 231.221L233.248 234.658L231 238.096L228.885 241.666L227.034 245.501L225.316 249.468L223.729 253.567L222.407 257.798L221.218 262.161L220.16 266.657L219.367 271.285L218.706 276.045L218.309 280.805L218.045 285.829V291.515L218.177 297.862L218.706 307.646L218.97 315.183V319.679L218.706 323.381L218.309 326.687L217.648 329.728L216.855 332.505L215.93 335.281L214.74 337.926L213.286 340.57L211.699 343.215L209.717 345.992L207.469 348.768L204.825 351.677L201.52 354.983L197.554 358.553L192.663 362.652L186.979 367.147L180.104 372.304L171.115 378.783L142.032 399.542L133.968 405.625L126.565 411.443L119.823 416.996L113.741 422.417L108.189 427.706L103.166 432.731L98.671 437.491L94.8373 441.987L91.4002 446.218L88.3596 450.317L85.7157 454.283L83.4683 457.986L81.6176 461.556L80.0312 464.994L78.7093 468.299L77.6517 471.473L76.9907 474.514L76.4619 477.423L76.1975 480.332V482.976L76.3297 485.621L76.7263 488.133L77.2551 490.513L78.0483 492.761L78.9736 494.876L80.1634 496.992L81.4854 498.975L83.0718 500.959L84.9225 502.81L86.9055 504.529L89.1528 506.248L91.6646 507.834L94.5729 509.421L97.6134 510.875L100.918 512.198L104.752 513.388L108.85 514.446L113.477 515.503L118.368 516.297L123.921 516.958L129.737 517.487L136.083 517.751L143.089 517.883L150.757 517.751L159.085 517.355L168.207 516.693L176.403 515.9L184.731 514.842L193.721 513.52L203.239 511.933L213.286 509.95L223.862 507.702L234.966 505.058L246.6 502.149L258.629 498.843L270.924 495.141L283.615 491.174L296.438 486.943L309.393 482.315L322.348 477.555L335.568 472.398L350.771 466.184L367.56 459.044L386.464 450.846L411.714 439.606L452.827 421.227L472.524 412.765L513.241 395.311L518.793 392.535L522.891 390.287L526.196 388.171L528.972 386.188L531.22 384.337L533.071 382.485L534.657 380.634L535.847 378.915L536.904 377.064L537.697 375.213L538.226 373.23L538.623 371.246L538.755 369.131V366.883L538.491 364.371L537.962 361.726L537.169 358.685L536.111 355.379L534.789 351.942L533.071 348.107L530.823 343.876L528.179 339.116L524.874 333.827L520.908 327.877L516.282 321.266L510.597 313.597L503.855 304.87L495.791 294.688L484.158 280.54L462.609 254.889L453.091 242.856L445.027 232.411L437.889 222.626L431.279 213.37L425.198 204.379L419.249 195.123L413.3 185.603L407.616 176.215L401.931 166.298L395.982 155.456L389.108 142.498L365.973 98.4672L360.553 88.8147L355.662 80.6168L351.167 73.4767L346.937 67.2622L342.839 61.4443L339.005 56.4197L335.304 51.9241L331.602 47.6929L327.901 43.8584L324.331 40.5528L320.894 37.5116L317.193 34.6027L313.623 32.0904L309.922 29.7104L306.22 27.727L302.651 26.0081L298.95 24.4214L295.38 23.2314L291.811 22.1736L288.374 21.3802L284.804 20.8513L281.235 20.5869L277.534 20.4547L273.7 20.5869L269.866 20.9836L266.165 21.5125L262.463 22.3058L258.762 23.3636L254.928 24.6858L251.094 26.2725L247.261 27.9914L243.295 29.9748L239.329 32.2227L234.966 34.9994L230.604 38.0405L226.241 41.3461L221.879 45.0484L217.516 49.0151L213.418 52.9819L209.32 57.2131L204.957 62.1054L200.595 67.3944L196.232 72.9478L192.002 78.7657L187.904 84.848L183.806 91.1948L179.576 98.2027L175.477 105.475L171.512 112.88L167.678 120.549L163.976 128.35L160.407 136.283L157.102 144.349L153.929 152.547L150.889 160.877L147.848 169.868L145.072 178.992L142.428 188.115L140.049 197.239L137.934 206.362L135.818 216.147L134.1 225.27L132.646 234.262L131.324 243.121L130.134 252.377L129.209 261.5L128.548 270.491L128.151 279.218L127.887 287.813V296.143L128.151 304.209L128.548 312.01L129.209 319.547L130.002 326.819L131.059 333.827L132.249 340.57L133.571 346.653L135.025 352.47L136.612 358.024L138.33 363.313L140.181 368.337L142.164 373.098L144.279 377.593L146.526 381.957L149.038 386.32L151.682 390.419L154.458 394.253L157.234 397.823L160.143 401.129L163.183 404.17L166.224 407.079L169.396 409.724L172.834 412.368L176.271 414.748L179.84 416.864L183.674 418.847L187.507 420.698L191.606 422.417L195.704 423.872L200.066 425.194L204.693 426.252L209.584 427.177L214.476 427.838L219.764 428.367L225.316 428.632L231 428.764L237.081 428.632L243.295 428.235L249.904 427.574L256.779 426.649L264.182 425.458L271.981 424.004L280.31 422.153L290.357 419.641L303.18 416.203L332.395 408.401L341.914 406.154L349.978 404.435L357.381 403.112L364.255 402.187L370.865 401.526L377.21 400.997L383.423 400.732H389.637L395.85 400.997L402.063 401.526L408.409 402.187L415.019 403.112L422.025 404.303L429.428 405.889L436.963 407.74L444.763 409.856L452.959 412.368L461.816 415.277L471.467 418.715L482.571 422.946L496.584 428.5L544.704 447.672L557.13 452.3L567.177 455.87L575.77 458.647L583.041 460.762L589.386 462.349L594.939 463.539L599.83 464.332L604.193 464.861L608.158 465.126H611.463L614.636 464.861L617.412 464.465L619.792 463.936L621.775 463.275L623.626 462.349L625.212 461.291L626.402 460.233L627.459 459.044L628.385 457.721L629.178 456.267L629.707 454.548L630.103 452.697L630.235 450.713V448.598L629.971 446.085L629.442 443.441L628.781 440.532L627.724 437.226L626.402 433.656L624.551 429.557L622.436 425.326L619.792 420.434L616.751 415.277L613.05 409.592L608.952 403.641L604.325 397.295L599.301 390.683L593.749 383.94L587.536 376.535L580.397 368.47L572.465 359.875L564.137 351.148L555.015 341.893L545.497 332.637L535.714 323.381L525.667 314.125L515.356 305.002L504.913 296.011L494.337 287.284L484.158 279.086L473.978 271.152L463.799 263.616L454.149 256.74L444.102 249.864L434.187 243.253L424.008 236.774L414.093 230.692L404.311 225.006L394.792 219.717L385.539 214.957L377.078 210.726L368.882 206.891L360.95 203.453L353.283 200.412L345.879 197.768L339.137 195.52L332.66 193.537L326.446 191.95L320.498 190.628L314.813 189.57L309.393 188.777L304.237 188.248L299.082 187.983H294.058L289.299 188.248L284.804 188.644L280.574 189.305L276.608 190.099L272.642 191.157L268.941 192.347L265.371 193.801L261.934 195.388L258.629 197.107L255.457 199.09L252.548 201.206L249.772 203.453L246.996 205.966L244.352 208.61L241.84 211.387L239.461 214.428L237.214 217.734L235.098 221.172L232.983 225.006L231 229.105L229.017 233.601L227.034 238.625L225.051 244.179L222.275 253.17L218.97 263.748L216.855 269.433L214.872 274.194L212.889 278.557L210.774 282.788L208.395 286.887L205.751 290.986L202.842 295.085L199.67 299.316L196.1 303.547L192.134 308.043L187.64 312.803L182.484 317.96L176.403 323.646L169 330.257L159.085 338.719L145.337 350.223L109.115 380.502L99.1998 389.097L90.7392 396.766L83.204 403.906L76.4619 410.649L70.2486 417.261L64.6964 423.343L59.4085 429.425L54.6494 435.243L50.4191 440.664L46.5854 445.953L43.1482 451.11L40.1077 456.135L37.4638 461.027L35.0843 465.655L33.1013 470.018L31.5149 474.117L30.0607 478.348L29.0032 482.315L28.0778 486.282L27.549 489.852L27.1524 493.157L27.0202 496.463L27.1524 499.769L27.4168 502.81L27.9456 505.851L28.6066 508.892L29.532 511.801L30.7217 514.71L32.0437 517.355L33.4979 519.867L35.2164 522.379L37.0672 524.759L39.1823 527.139L41.4297 529.387L43.9414 531.503L46.7176 533.618L49.6259 535.601L52.7986 537.453L56.5002 539.304L60.4661 541.023L64.6964 542.609L69.1911 544.064L73.9502 545.386L79.3703 546.708L85.0547 547.766L91.0036 548.692L97.2169 549.353L104.091 549.882L111.23 550.278L119.162 550.411L127.358 550.278L135.818 550.014L145.072 549.485L154.59 548.692L164.373 547.634L173.627 546.444L183.674 544.857L193.721 543.006L203.9 541.023L214.74 538.643L225.58 535.998L236.42 533.089L247.789 529.784L259.026 526.346L270.131 522.643L281.103 518.809L291.811 514.842L302.254 510.743L312.434 506.512L322.348 502.149L331.867 497.653L340.988 493.157L349.713 488.53L358.57 483.637L367.031 478.745L375.095 473.72L382.762 468.696L389.901 463.671L396.643 458.647L402.989 453.755L408.937 448.862L414.49 443.97L419.645 439.078L424.14 434.45L428.37 429.954L432.204 425.458L435.773 420.963L439.078 416.599L442.251 411.972L445.027 407.476L447.539 402.98L449.786 398.617L451.769 394.253L453.488 390.022L455.074 385.527L456.396 381.163L457.454 376.8L458.247 372.304L458.908 367.941L459.305 363.445L459.569 358.95V354.322L459.305 349.562L458.908 344.801L458.247 339.909L457.322 335.017L456.264 329.86L454.942 324.571L453.223 319.018L451.241 313.2L448.993 307.117L446.217 300.374L442.78 292.705L438.55 283.582L432.733 271.814L425.33 257.137L410.392 227.915L406.029 218.659L402.063 209.668L398.23 200.544L394.396 190.892L390.298 179.917L385.539 166.431L380.647 151.886L368.353 115.127L364.519 104.682L360.95 95.5582L357.645 87.6247L354.34 80.2201L351.035 73.3445L347.73 66.9977L344.425 61.0476L341.12 55.6264L337.948 50.7341L334.643 46.1062L331.47 42.0073L328.297 38.1728L324.992 34.6027L321.82 31.4293L318.647 28.5203L315.342 25.7437L312.037 23.3636L308.6 21.1158L305.163 19.2646L301.593 17.5457L298.156 16.0912L294.587 14.9012L291.15 13.9756L287.581 13.1823L284.011 12.6534L280.574 12.389L277.005 12.2567L273.436 12.389L269.734 12.7856L266.032 13.4467L262.199 14.2401L258.233 15.2979L254.267 16.6201L250.301 18.2068L246.203 20.058L242.105 22.1736L238.007 24.6858L233.776 27.4626L229.546 30.5037L225.316 33.8093L221.085 37.3794L216.855 41.2139L212.493 45.4451L208.13 49.9407L203.9 54.7008L199.67 59.7253L195.439 65.1466L191.209 70.8322L186.714 77.179L182.352 83.7902L178.121 90.6659L173.891 97.806L169.793 105.211L165.827 112.747L161.993 120.549L158.292 128.482L154.59 137.077L151.021 145.936L147.716 154.795L144.543 163.786L141.635 172.91L138.859 182.033L136.347 191.157L134.1 200.412L131.985 209.536L130.134 218.659L128.415 227.783L126.829 237.435L125.639 246.294L124.714 255.021L123.921 263.616L123.392 272.078L122.995 280.937L122.863 289.532L122.995 297.862L123.392 306.06L123.921 313.993L124.714 321.662L125.639 328.538L126.697 335.149L127.887 341.628L129.341 347.843L130.927 353.793L132.646 359.478L134.496 364.9L136.479 370.056L138.595 374.949L140.842 379.577L143.089 383.676L145.469 387.642L148.113 391.609L150.889 395.311L153.797 398.749L156.706 402.055L159.746 405.096L162.919 408.005L166.356 410.782L169.925 413.426L173.495 415.806L177.196 417.922L181.162 420.037L185.128 421.888L189.49 423.607L193.853 425.062L198.48 426.384L203.107 427.442L207.998 428.367L213.021 429.029L218.177 429.557L223.597 429.822L229.282 429.954L235.231 429.822L241.312 429.425L247.789 428.764L254.531 427.838L261.538 426.649L268.941 425.194L276.873 423.475L285.201 421.36L294.19 418.847L303.841 415.938L316.4 411.839L352.225 400.071L360.95 397.559L368.485 395.576L375.492 393.989L382.101 392.799L388.315 391.873L394.264 391.212L400.08 390.816L405.897 390.683H411.581L417.266 390.948L422.95 391.477L428.899 392.27L434.848 393.196L441.061 394.518L447.671 396.105L454.81 398.088L462.477 400.336L470.277 402.98L478.738 406.021L488.124 409.724L499.096 414.219L514.299 420.698L539.813 431.673L551.314 436.301L560.964 440.003L569.16 442.912L576.431 445.292L582.644 447.011L588.197 448.333L592.956 449.259L597.186 449.788L600.755 450.052H603.796L606.572 449.92L608.952 449.523L611.067 448.994L612.918 448.201L614.504 447.275L615.826 446.35L617.016 445.16L617.941 443.97L618.734 442.648L619.263 441.193L619.66 439.474L619.924 437.623V435.64L619.792 433.392L619.395 430.88L618.734 428.235L617.809 425.194L616.487 421.888L614.768 418.186L612.653 413.955L610.141 409.459L607.101 404.435L603.399 398.881L599.301 393.063L594.542 386.717L588.99 379.709L582.644 372.04L575.506 363.842L567.31 354.586L559.907 346.653L551.842 338.19L542.985 329.331L533.467 320.075L523.156 310.423L512.183 300.506L500.682 290.325L489.049 280.276L477.416 270.491L465.782 261.103L454.678 252.377L444.234 244.443L434.319 237.171L424.669 230.427L414.093 223.287L403.782 216.676L393.867 210.461L384.349 204.776L375.227 199.619L366.502 194.859L358.174 190.628L350.242 186.793L342.707 183.488L335.568 180.579L328.826 178.066L322.348 175.951L316.267 174.1L310.583 172.645L305.163 171.455L300.007 170.662L295.248 170.133L290.753 169.868L286.523 169.736L282.293 169.868L278.327 170.265L274.625 170.794L271.056 171.587L267.751 172.513L264.578 173.703L261.538 175.025L258.629 176.612L255.853 178.331L253.209 180.314L250.565 182.43L248.186 184.81L245.806 187.454L243.427 190.363L241.047 193.537L238.668 197.107L236.288 201.073L233.909 205.701L230.736 212.18L222.275 229.898L219.235 235.716L216.062 241.137L212.757 246.426L209.056 251.848L205.222 257.137L200.992 262.558L196.365 268.111L191.209 273.929L185.392 280.276L178.782 287.152L170.983 294.821L161.597 303.944L147.452 317.167L133.042 330.389L97.349 362.916L86.6411 373.098L77.5195 382.089L69.0589 390.551L61.5237 398.485L54.5172 406.286L48.1718 413.558L42.4873 420.566L37.3316 427.177L32.5725 433.656L28.21 440.003L24.2441 446.085L20.8069 451.639L17.6342 457.325L14.8581 462.746L12.4786 467.902L10.4956 472.795L8.77701 477.29L7.32287 481.786L6.13307 486.017L5.20771 490.248L4.54673 494.083L4.15011 497.917L3.88574 501.752V505.322L4.15011 508.892L4.54673 512.33L5.20771 515.768L6.0009 518.941L7.05846 521.982L8.24823 525.024L9.7024 527.932L11.2888 530.841L13.1395 533.618L15.2547 536.395L17.502 539.039L20.0138 541.552L22.7899 543.932L25.8305 546.312L29.0032 548.559L32.4403 550.675L36.1418 552.658L40.1077 554.51L44.2058 556.229L49.0971 557.947L54.2528 559.534L59.6729 560.989L65.3574 562.311L71.174 563.369L77.9161 564.426L84.9225 565.22L92.1934 565.881L100.257 566.278L108.586 566.542H117.179L126.697 566.278L136.479 565.749L145.733 565.088L155.119 564.162L164.637 562.972L174.288 561.518L184.731 559.666L195.307 557.683L205.883 555.435L216.459 552.923L227.034 550.278L238.271 547.105L249.376 543.799L260.348 540.229L271.188 536.527L281.764 532.56L292.075 528.461L302.122 524.23L311.244 520.131L320.101 515.9L328.694 511.669L336.89 507.305L344.822 502.81L352.357 498.314L359.628 493.819L366.502 489.191L373.112 484.563L379.325 479.935L385.142 475.307ZM385.142 475.307L390.694 470.547L395.85 465.787L400.741 461.027L405.236 456.267L409.466 451.507L413.3 446.747L416.605 442.383L419.645 438.02L422.422 433.656L424.933 429.293L427.181 425.062L429.296 420.831L431.147 416.599L432.865 412.104L434.319 407.608L435.509 403.112L436.434 398.749L437.228 394.386L437.756 389.758L438.153 385.13L438.285 380.634V375.874L438.021 371.114L437.492 366.222L436.831 361.33L435.906 356.305L434.716 351.281L433.262 346.124L431.543 340.835L429.56 335.414L427.313 329.86L424.801 324.174L422.025 318.224L418.852 312.142L415.283 305.795L411.317 299.052L406.822 291.912L401.667 284.243L395.586 275.384L388.05 264.806L377.475 250.525L367.428 236.906L361.347 228.312L356.72 221.304L352.886 215.089L349.449 209.271L346.408 203.718L343.632 198.032L341.12 192.347L338.873 186.793L336.758 181.107L334.775 175.29L332.924 169.075L331.073 161.935L328.958 152.944L325.786 138.267L321.423 118.169L319.308 109.838L317.457 103.095L315.606 97.1449L313.756 91.8559L311.773 86.9636L309.79 82.6002L307.675 78.5012L305.559 74.7989L303.312 71.3611L301.065 68.1877L298.817 65.411L296.438 62.8987L294.058 60.6509L291.547 58.6676L289.035 56.9486L286.523 55.4942L283.879 54.1719L281.235 53.1141L278.459 52.3208L275.683 51.7919L272.907 51.3952L269.998 51.263L267.09 51.3952L264.182 52.5852L261.009 53.1141L257.836 53.9075L254.531 54.9652L251.226 56.2875L247.789 57.8742L244.352 59.7253L240.915 61.8409L237.478 64.3532L234.041 67.1299L230.604 70.1711L227.167 73.4767L223.729 77.0468L220.292 80.8813L216.723 85.2447L213.154 89.8726L209.584 95.0293L206.015 100.583L202.314 106.665L198.744 113.012L195.043 119.888L191.341 127.424L187.64 135.49L184.335 143.159L181.294 150.696L178.254 158.629L175.345 167.092L172.437 175.951L169.661 185.206L167.017 194.859L164.637 204.511L162.39 214.428L160.275 224.609L158.292 234.923L156.573 245.369L154.987 255.814L153.665 266.26L152.475 277.235L151.418 289.796L150.36 303.547L149.435 319.679L148.113 345.463L146.923 368.602L145.733 386.584L143.882 413.558L143.618 420.831V426.384L143.882 430.88L144.279 434.846L144.808 438.284L145.469 441.325L146.262 444.102L147.32 446.614L148.509 448.862L149.831 450.978L151.285 452.961L152.872 454.812L154.723 456.531L156.706 458.118L158.953 459.572L161.465 460.895L164.241 462.217L167.281 463.275L170.586 464.2L174.156 464.994L178.121 465.655L182.484 466.184L187.243 466.448L192.399 466.58L197.951 466.448L204.164 466.051L210.906 465.39L218.177 464.465L226.241 463.275L235.098 461.688L245.013 459.705L256.382 457.192L270.792 453.755L319.44 441.987L331.206 439.474L341.781 437.491L351.432 435.904L360.553 434.582L369.278 433.524L377.871 432.731L386.332 432.202L394.528 431.937H402.724L410.92 432.07L419.117 432.466L427.445 433.127L436.17 434.053L445.027 435.111L454.281 436.565L464.196 438.284L474.772 440.4L486.405 442.912L500.814 446.35L516.678 450.317L562.55 461.952L571.936 464.068L579.604 465.522L586.082 466.58L591.766 467.241L596.922 467.638L601.549 467.77L605.515 467.638L609.084 467.241L612.124 466.713L614.9 466.051L617.28 465.258L619.263 464.332L620.982 463.275L622.436 462.085L623.626 460.895L624.683 459.572L625.608 458.118L626.402 456.399L626.93 454.548L627.327 452.564L627.459 450.449V448.201L627.195 445.557L626.666 442.78L626.005 439.739L624.947 436.301L623.626 432.599L621.907 428.632L619.924 424.533L617.412 419.773L614.504 414.88L611.067 409.327L607.233 403.509L602.738 397.162L597.715 390.551L592.03 383.411L585.949 376.006L579.472 368.47L572.201 360.404L564.533 352.206L556.469 344.008L547.612 335.281L538.491 326.555L528.972 317.828L518.793 308.704L508.35 299.713L497.774 290.986L487.595 282.788L476.887 274.458L466.311 266.525L455.735 258.856L445.292 251.583L434.451 244.311L423.876 237.435L413.961 231.353L404.311 225.667L394.925 220.378L385.803 215.486L377.342 211.255L369.278 207.42L361.875 204.115L354.605 201.206L347.598 198.561L340.592 196.181L333.85 194.198L327.372 192.479L321.159 191.024L315.739 190.099L310.054 189.305L304.634 188.777L299.478 188.512H294.587L289.96 188.644L285.598 189.041L281.367 189.702L277.269 190.495L273.303 191.553L269.602 192.743L266.032 194.198L262.595 195.784L259.29 197.503L256.25 199.354L253.342 201.47L250.433 203.718L247.657 206.23L245.013 208.875L242.501 211.784L240.122 214.957L237.875 218.263L235.759 221.833L233.776 225.535L231.926 229.502L229.943 234.13L227.96 239.286L225.712 245.633L218.97 265.731L216.855 270.888L214.74 275.516L212.493 279.879L210.113 283.978L207.601 288.077L204.825 292.176L201.785 296.275L198.348 300.506L194.382 305.002L189.887 309.762L184.599 315.051L177.989 321.398L170.718 328.009L162.39 335.149L151.946 343.876L131.72 360.536L116.914 372.833L106.206 381.957L97.2169 390.022L88.8884 397.823L81.221 405.228L74.2145 412.368L67.8691 419.112L62.1846 425.458L57.0289 431.541L52.2699 437.491L48.0395 443.044L44.2058 448.466L40.9009 453.49L37.9926 458.382L35.4808 463.01L33.2335 467.506L31.2505 472.002L29.6642 476.233L28.3422 480.199L27.2846 484.166L26.4914 487.868L25.8305 491.571L25.4338 495.009L25.3016 498.446L25.4338 501.62L25.6983 504.793L26.227 507.834L26.888 510.875L27.8134 513.652L28.871 516.297L30.1929 518.941L31.6471 521.453L33.3657 523.966L35.2164 526.346L37.3316 528.726L39.5789 530.974L42.0907 533.089L44.8668 535.205L48.1718 537.32L51.741 539.304L55.5748 541.287L59.5407 543.138L63.771 544.857L68.2657 546.444L73.4214 548.031L78.9736 549.353L84.7903 550.543L90.8714 551.601L97.2169 552.394L103.827 553.055L110.701 553.452L118.368 553.716H126.3L134.496 553.584L143.486 553.187L152.607 552.526L161.861 551.601L171.247 550.411L181.426 548.956L191.738 547.237L202.049 545.254L212.493 543.006L222.936 540.494L233.909 537.717L244.881 534.676L255.721 531.37L266.429 527.932L277.005 524.23L287.316 520.396L297.495 516.429L307.41 512.33L317.589 507.834L327.372 503.206L336.758 498.579L345.879 493.819L354.605 489.058L362.933 484.298L370.865 479.406L378.4 474.514L385.539 469.621L392.281 464.729L398.626 459.837L404.707 454.945L410.392 450.184L415.68 445.424L420.571 440.664L425.066 435.904L429.031 431.541L432.601 427.177L435.906 422.814L439.078 418.186L441.987 413.69L444.631 409.195L447.01 404.831L449.125 400.468L450.976 396.105L452.563 391.873L454.017 387.378L455.206 383.014L456.132 378.651L456.925 374.155L457.454 369.792L457.718 365.164L457.85 360.404L457.718 355.776L457.454 351.016L456.925 346.256L456.132 341.364L455.074 336.207L453.884 330.918L452.298 325.497L450.447 319.811L448.332 313.729L447.275 311.084L437.492 285.433" stroke="black" stroke-width="5" stroke-linecap="square" stroke-linejoin="round"/>
<path d="M172.276 90.4402C171.487 89.7824 219.745 -6.2548 281.284 0.323086C312.054 3.61203 335.459 31.2392 334.539 32.5547C333.75 33.7388 310.739 9.40056 280.627 7.4272C220.666 3.48046 172.934 91.0979 172.276 90.4402Z" fill="black"/>
<path d="M42.0602 422.754C8.79243 458.275 -8.69616 502.346 4.32165 533.131C33.2501 602.199 195.381 559.048 195.381 557.732C195.381 556.417 37.1949 585.096 8.6609 527.474C-4.88288 500.241 13.6577 461.432 42.0602 422.754Z" fill="black"/>
<path d="M537.135 464.851C536.741 466.298 621.685 502.871 638.779 478.138C647.984 464.983 634.571 438.803 634.177 438.934C633.782 439.066 644.302 459.589 636.544 471.297C620.502 495.372 537.53 463.404 537.135 464.851Z" fill="black"/>
<path d="M145.534 396.701C144.219 396.569 131.332 433.142 146.717 454.192C175.382 493.396 282.286 450.245 282.155 449.587C282.023 448.929 180.774 486.686 151.714 449.587C136.329 429.985 146.717 396.701 145.534 396.701Z" fill="black"/>
<path d="M196.838 100.712C196.312 100.186 238.258 27.171 282.571 38.6166C319.521 48.2203 329.383 109.395 328.068 110.052C326.753 110.71 313.604 52.8248 279.284 45.7207C239.705 37.301 197.364 101.238 196.838 100.712Z" fill="black"/>
<path d="M211.524 170.294C211.13 170.163 214.417 160.428 218.099 152.403C222.175 143.588 237.428 110.172 261.229 105.436C285.949 100.569 312.379 128.196 312.511 128.064C312.511 128.064 308.961 125.038 302.123 121.486C292.261 116.356 278.323 109.252 264.253 111.225C242.031 114.251 228.093 138.457 221.386 150.166C215.469 160.164 211.919 170.426 211.524 170.294Z" fill="black"/>
<path d="M491.516 289.628C492.436 288.839 554.106 348.172 538.327 378.825C530.306 394.48 504.533 398.164 504.533 398.164C504.533 398.164 525.835 395.138 533.593 381.587C550.819 351.724 490.464 290.418 491.516 289.628Z" fill="black"/>
<path d="M218.379 300.008C217.327 305.402 215.486 313.164 211.278 321.583C208.648 326.977 202.6 337.633 180.246 356.709C162.757 371.707 150.266 379.074 150.528 379.469C150.923 379.995 169.2 369.207 188.661 354.078C206.676 340.001 210.752 333.687 213.119 328.951C218.642 317.9 218.773 306.849 218.379 300.008Z" fill="black"/>
<path d="M60.1051 477.088C58.6587 483.271 56.0289 494.585 61.1571 505.11C67.7317 518.923 83.9053 523.396 93.2413 525.896C107.18 529.711 120.855 528.922 120.855 528.922C120.855 528.922 118.488 528.79 114.543 528.396C111.782 528.001 104.55 527.212 96.9231 524.843C90.7429 522.87 82.8534 520.502 75.0953 513.924C72.2024 511.425 65.6278 505.899 62.472 497.216C58.5272 486.429 61.683 476.036 63.6554 469.589C65.4963 463.274 67.9947 458.933 67.8632 458.801C67.6002 458.67 62.6035 466.563 60.1051 477.088Z" fill="black"/>
<path d="M325.261 140.297C324.209 140.56 325.656 152.137 326.708 158.32C329.995 180.159 333.282 201.471 347.089 220.81C352.743 228.703 354.321 228.046 369.837 247.253C377.201 256.33 382.329 263.172 382.592 263.04C383.25 262.645 359.318 236.465 343.144 198.05C330.39 167.661 326.839 140.033 325.261 140.297Z" fill="black"/>
</g>
<defs>
<clipPath id="clip0_35_67">
<rect width="643" height="573" fill="white"/>
</clipPath>
</defs>
</svg>
